# xmcd
#
# Track frame offsets:
#	150
#	23025
#	40129
#	59500
#	70949
#	87101
#	103489
#	116393
#	135843
#	149288
#	163437
#	182654
#	197240
#	211527
#	226423
#	242366
#	263238
#	280377
#	302008
#	319866
#
# Disc length: 4508 seconds
#
# Revision: 0
# Processed by: cddbd v1.4PL0 Copyright (c) Steve Scherf et al.
# Submitted via: EasyCDDAExtractor 4.6.9.1
#
DISCID=1d119a14
DTITLE=Πασχάλης Τερζής - Φωτιά στις νύχτες
DYEAR=2002
DGENRE=
TTITLE0=Ανησυχώ
TTITLE1=Παραστράτημα
TTITLE2=Φεγγάρι μου χλωμό
TTITLE3=Δικαίωμά μου
TTITLE4=Έφταιξες
TTITLE5=Έχει ένα φεγγάρι απόψε
TTITLE6=Φωτιά στις νύχτες
TTITLE7=Σε χρειάστηκα
TTITLE8=Ουρανός χωρίς φεγγάρι
TTITLE9=Τα σημάδια
TTITLE10=Μετανάστης
TTITLE11=Εγώ την αμαρτία μου την λέω
TTITLE12=Μην την πεις αυτή τη λέξη
TTITLE13=Μια ψυχή
TTITLE14=Στα σκοτεινά παραπατώ
TTITLE15=Τα μάτια κλείνω
TTITLE16=Ακόμα επιμένω
TTITLE17=Ξενητιά μου
TTITLE18=Τον ήλιο να 'χα
TTITLE19=Ότι πολύ αγάπησα
EXTD=
EXTT0=
EXTT1=
EXTT2=
EXTT3=
EXTT4=
EXTT5=
EXTT6=
EXTT7=
EXTT8=
EXTT9=
EXTT10=
EXTT11=
EXTT12=
EXTT13=
EXTT14=
EXTT15=
EXTT16=
EXTT17=
EXTT18=
EXTT19=
PLAYORDER=
